<svg width="138px" height="41px" viewBox="0 0 138 41" version="1.1" xmlns="http://www.w3.org/2000/svg" xmlns:xlink="http://www.w3.org/1999/xlink">
    <g id="bare-logo" stroke="none" stroke-width="1" fill="none" fill-rule="evenodd">
        <g id="Page-1" fill="#C3C3C3">
            <path d="M22.4907825,13.3231992 C16.5104434,13.3231992 12.951783,16.0902689 11.4593031,18.2151684 L11.2447783,18.2151684 C11.2447783,18.2151684 11.3875906,14.9542626 11.3875906,11.7647768 L11.3875906,0 L0,0 L0,41 L16.1733329,41 C12.9781389,39.6308102 10.9603797,36.1184081 10.9603797,31.9388083 C10.9603797,26.5523926 14.3045152,22.2549802 19.214682,22.2549802 C24.1260746,22.2549802 27.3997234,26.5523926 27.3997234,31.9388083 C27.3997234,36.1184081 25.4242562,39.6308102 22.2474501,41 L36.8424932,41 C38.2448726,38.2500223 39,34.9982729 39,31.4706101 C39,21.1928357 32.5949017,13.3231992 22.4907825,13.3231992" id="Fill-1"></path>
            <path d="M112.612617,27.5576533 C112.756098,24.1870313 115.209555,20.4600794 119.969884,20.4600794 C124.802263,20.4600794 127.180564,24.3296868 127.251993,27.5576533 L112.612617,27.5576533 Z M120.184794,13 C109.656046,13 101,19.6708425 101,31.358712 C101,35.0998677 101.823616,38.3309219 103.298796,41 L118.204016,41 C115.158002,40.0971328 112.916349,37.8621967 112.540566,34.0846052 L137.855898,34.0846052 C137.855898,34.0846052 138,32.001588 138,30.2841641 C138,19.9567711 130.717269,13 120.184794,13 Z" id="Fill-3"></path>
            <path d="M70.7866797,17.090075 C68.0005609,14.5068372 64.2135555,13 57.6410465,13 C51.070383,13 45.5719662,15.0817821 42.5699217,16.5861491 L45.5719662,24.0462285 C47.3565833,22.8975739 51.8571894,20.8868108 56.3571803,20.8868108 C60.9291465,20.8868108 63.5706997,22.8259374 63.5706997,26.5522717 L63.5706997,27.3427437 L54.7146683,27.7015439 C48.2135193,27.98809 41,30.6411116 41,38.529775 C41,39.4097927 41.0855091,40.2305249 41.2399175,41 L53.583365,41 C52.8494635,40.2688134 52.4293003,39.286899 52.4293003,38.1005734 C52.4293003,35.4456992 54.500588,33.940097 58.0003076,33.796824 L63.6432901,33.4386414 L63.6432901,39.2473754 C63.3412401,39.7611822 62.7955816,40.4151742 62.0376884,41 L75,41 L75,29.0644905 C75,23.113101 73.5014384,19.670225 70.7866797,17.090075" id="Fill-5"></path>
            <path d="M97.545866,13 C93.8847338,13 91.0551633,14.7860171 89.1208007,18.6446504 L88.9810174,18.6446504 L89.0529909,13.6439256 L78,13.6439256 L78,41 L89.0529909,41 L89.0529909,33.210776 C89.0529909,29.2851055 89.9487935,26.9984625 90.7785709,25.8557559 C91.6059689,24.7136644 93.4023327,23.2855888 95.8904751,23.2855888 C97.8230532,23.2855888 99.27442,23.7843697 99.8954147,24.1410811 L100.378411,24.1410811 L101,13.6439256 C101,13.6439256 99.8264153,13 97.545866,13" id="Fill-7"></path>
        </g>
    </g>
</svg>